<?xml version="1.0" encoding="UTF-8" standalone="no"?>
<!-- Created with Inkscape (http://www.inkscape.org/) -->

<svg
   xmlns:dc="http://purl.org/dc/elements/1.1/"
   xmlns:cc="http://creativecommons.org/ns#"
   xmlns:rdf="http://www.w3.org/1999/02/22-rdf-syntax-ns#"
   xmlns:svg="http://www.w3.org/2000/svg"
   xmlns="http://www.w3.org/2000/svg"
   xmlns:sodipodi="http://sodipodi.sourceforge.net/DTD/sodipodi-0.dtd"
   xmlns:inkscape="http://www.inkscape.org/namespaces/inkscape"
   version="1.1"
   id="svg821"
   width="512"
   height="512"
   viewBox="0 0 512 512"
   sodipodi:docname="icon_512x512.svg"
   inkscape:version="0.92.2 (5c3e80d, 2017-08-06)">
  <metadata
     id="metadata827">
    <rdf:RDF>
      <cc:Work
         rdf:about="">
        <dc:format>image/svg+xml</dc:format>
        <dc:type
           rdf:resource="http://purl.org/dc/dcmitype/StillImage" />
        <dc:title></dc:title>
      </cc:Work>
    </rdf:RDF>
  </metadata>
  <defs
     id="defs825" />
  <sodipodi:namedview
     pagecolor="#ffffff"
     bordercolor="#666666"
     borderopacity="1"
     objecttolerance="10"
     gridtolerance="10"
     guidetolerance="10"
     inkscape:pageopacity="0"
     inkscape:pageshadow="2"
     inkscape:window-width="1920"
     inkscape:window-height="1001"
     id="namedview823"
     showgrid="false"
     inkscape:zoom="0.7890625"
     inkscape:cx="221.72832"
     inkscape:cy="269.9832"
     inkscape:window-x="-9"
     inkscape:window-y="-9"
     inkscape:window-maximized="1"
     inkscape:current-layer="svg821" />
  <rect
     style="fill:#242424;fill-opacity:1;fill-rule:evenodd;stroke:none;stroke-width:17.59527016;stroke-miterlimit:4;stroke-dasharray:none;stroke-opacity:1"
     id="rect6338"
     width="512"
     height="512"
     x="0"
     y="0" />
  <path
     style="fill:#f58e24;fill-opacity:1;stroke-width:2.09044218"
     d="M 221.72351,467.17825 C 202.21089,464.37863 170.48305,453.71508 150.90464,443.3762 76.338503,403.99996 31.401773,326.07979 36.296193,244.64574 42.775813,136.83786 131.32249,50.724973 243.22512,43.404393 c 46.71993,-3.05644 104.45025,13.68022 142.53326,41.32208 62.0206,45.016317 97.11441,121.216307 88.52614,192.218937 -6.18663,51.14714 -25.81425,92.08053 -61.11178,127.44834 -25.29782,25.34822 -54.6619,43.17165 -89.47022,54.30663 -32.41208,10.3685 -68.11461,13.33657 -101.97901,8.47787 z m 84.22792,-28.82502 c 56.58034,-14.82179 107.25084,-57.76795 128.80417,-109.16868 10.76932,-25.68284 14.40669,-44.12114 14.40669,-73.02983 0,-39.74693 -8.70324,-68.84533 -30.33411,-101.41935 -27.02541,-40.69765 -70.44506,-70.492897 -119.53749,-82.028697 -21.67332,-5.09285 -66.52322,-5.17366 -87.48625,-0.15787 -35.0312,8.38212 -66.28564,25.46165 -92.18624,50.376707 -27.774447,26.71766 -46.358227,58.93681 -54.056237,93.71848 -4.42325,19.98543 -4.53217,58.71556 -0.22084,78.49525 16.03997,73.58725 77.333387,131.60312 154.656607,146.38681 21.2698,4.0666 64.39498,2.47478 85.9537,-3.17282 z M 127.43939,253.539 l 0.0435,-96.77927 9.2782,10.46268 c 5.10295,5.75449 14.24632,16.29358 20.31853,23.42051 6.07229,7.12677 11.74526,13.012 12.60676,13.07823 0.86142,0.0659 1.56624,-14.98205 1.56624,-33.44078 v -33.56116 l 41.24515,49.10238 c 22.68483,27.00627 42.18492,48.8742 43.3335,48.59515 1.14862,-0.27888 20.41377,-22.20141 42.81144,-48.71663 l 40.72308,-48.2097 1.04419,33.58093 1.04416,33.58092 19.68595,-22.37688 c 10.82718,-12.30715 20.45976,-22.37686 21.40566,-22.37686 0.94588,0 1.71976,42.84443 1.71976,95.20988 v 95.20988 h -10.44182 -10.44184 v -68.00709 c 0,-37.40385 -0.70482,-67.9315 -1.56627,-67.83922 -0.86145,0.0926 -25.06036,26.88509 -53.77536,59.53975 l -52.20905,59.37201 -4.40633,-4.61104 c -2.42343,-2.53608 -26.38737,-29.50958 -53.25322,-59.94102 l -48.84693,-55.33023 -0.55057,68.40842 -0.55065,68.40842 h -10.41331 -10.4133 l 0.0427,-96.77928 z m 137.4291,37.66546 c 4.44376,-4.89136 18.59851,-20.84201 31.45495,-35.44618 l 23.37535,-26.55287 -0.60858,-17.07247 -0.60861,-17.07248 -31.1328,36.82469 c -17.12313,20.25349 -31.39033,36.82472 -31.70495,36.82472 -0.31457,0 -13.08805,-14.80818 -28.38546,-32.90704 -15.29738,-18.09871 -29.42676,-34.81275 -31.3986,-37.1422 -3.43832,-4.0619 -3.58525,-3.50696 -3.5881,13.55108 l -0.002,17.7864 30.73683,34.96812 c 16.90525,19.23243 31.42232,35.00482 32.26007,35.04973 0.83779,0.0455 5.15907,-3.9202 9.60286,-8.8115 z m -93.61645,10.96356 v -48.15018 l 10.44185,11.55323 10.44182,11.55306 v 36.59702 36.59713 h -10.44182 -10.44185 z m 148.35339,11.00791 0.0795,-37.14234 10.36223,-11.13172 10.36219,-11.13169 v 48.27407 48.27403 h -10.44182 -10.44181 l 0.0795,-37.14235 z"
     id="path5768"
     inkscape:connector-curvature="0" />
</svg>
