<?xml version="1.0" encoding="UTF-8" standalone="no"?>
<!-- Created with Inkscape (http://www.inkscape.org/) -->

<svg
   xmlns:dc="http://purl.org/dc/elements/1.1/"
   xmlns:cc="http://creativecommons.org/ns#"
   xmlns:rdf="http://www.w3.org/1999/02/22-rdf-syntax-ns#"
   xmlns:svg="http://www.w3.org/2000/svg"
   xmlns="http://www.w3.org/2000/svg"
   xmlns:sodipodi="http://sodipodi.sourceforge.net/DTD/sodipodi-0.dtd"
   xmlns:inkscape="http://www.inkscape.org/namespaces/inkscape"
   version="1.1"
   id="svg5785"
   width="819.20001"
   height="819.20001"
   viewBox="0 0 819.20001 819.20001"
   sodipodi:docname="icon.svg"
   inkscape:version="0.92.2 (5c3e80d, 2017-08-06)">
  <metadata
     id="metadata5791">
    <rdf:RDF>
      <cc:Work
         rdf:about="">
        <dc:format>image/svg+xml</dc:format>
        <dc:type
           rdf:resource="http://purl.org/dc/dcmitype/StillImage" />
        <dc:title></dc:title>
      </cc:Work>
    </rdf:RDF>
  </metadata>
  <defs
     id="defs5789" />
  <sodipodi:namedview
     pagecolor="#ffffff"
     bordercolor="#666666"
     borderopacity="1"
     objecttolerance="10"
     gridtolerance="10"
     guidetolerance="10"
     inkscape:pageopacity="0"
     inkscape:pageshadow="2"
     inkscape:window-width="1920"
     inkscape:window-height="1001"
     id="namedview5787"
     showgrid="false"
     inkscape:zoom="1.1523437"
     inkscape:cx="614.81343"
     inkscape:cy="203.52968"
     inkscape:window-x="-9"
     inkscape:window-y="-9"
     inkscape:window-maximized="1"
     inkscape:current-layer="svg5785" />
  <rect
     style="fill:#242424;fill-opacity:1;fill-rule:evenodd;stroke:none;stroke-width:28.17992401;stroke-miterlimit:4;stroke-dasharray:none;stroke-opacity:1"
     id="rect6338"
     width="820"
     height="820"
     x="0"
     y="-0.79998779" />
  <text
     xml:space="preserve"
     style="font-style:normal;font-weight:normal;font-size:15.02788734px;line-height:1.25;font-family:sans-serif;letter-spacing:0px;word-spacing:0px;fill:#f58e24;fill-opacity:1;stroke:none;stroke-width:0.37569717"
     x="169.64606"
     y="728.93872"
     id="text4600"
     transform="scale(0.99901784,1.0009831)"><tspan
       sodipodi:role="line"
       id="tspan4598"
       x="169.64606"
       y="728.93872"
       style="font-style:normal;font-variant:normal;font-weight:normal;font-stretch:normal;font-size:72.13385773px;font-family:'Trebuchet MS';-inkscape-font-specification:'Trebuchet MS';fill:#f58e24;fill-opacity:1;stroke-width:0.37569717">Master Monitor</tspan></text>
  <path
     style="fill:#f58e24;fill-opacity:1;stroke-width:2.14966559"
     d="m 375.16789,578.49595 c -20.06542,-2.87894 -52.69213,-13.84458 -72.8252,-24.47637 -76.67863,-40.49179 -122.88845,-120.61949 -117.85537,-204.36061 6.66319,-110.86214 97.71844,-199.41465 212.79133,-206.94263 48.04354,-3.14302 107.40939,14.0678 146.57132,42.49276 63.77768,46.29166 99.86571,124.65043 91.03412,197.66461 -6.36189,52.59617 -26.54557,94.68922 -62.84311,131.05903 -26.01452,26.06634 -56.2105,44.39473 -92.00495,55.84516 -33.33034,10.66224 -70.04434,13.7144 -104.86814,8.71805 z m 86.61414,-29.64164 c 58.1833,-15.24171 110.28932,-59.40455 132.45327,-112.26149 11.07443,-26.41045 14.81484,-45.37111 14.81484,-75.09881 0,-40.87298 -8.94981,-70.79576 -31.19349,-104.29262 -27.79106,-41.85064 -72.44081,-72.49001 -122.92406,-84.35261 -22.28733,-5.23713 -68.40785,-5.32024 -89.96478,-0.16234 -36.02366,8.61958 -68.16355,26.18299 -94.79793,51.8039 -28.56131,27.47458 -47.67158,60.60652 -55.58768,96.37358 -4.54856,20.55163 -4.66057,60.379 -0.22708,80.71906 16.49438,75.67202 79.52428,135.33152 159.0381,150.53404 21.87239,4.1818 66.21933,2.54489 88.38881,-3.26271 z m -183.56938,-190.05012 0.0447,-99.52109 9.54106,10.75909 c 5.24751,5.91752 14.64993,16.7552 20.89416,24.08403 6.24432,7.32869 12.07801,13.38064 12.96392,13.44874 0.88583,0.0678 1.61061,-15.40649 1.61061,-34.38817 v -34.51197 l 42.41365,50.49348 c 23.3275,27.77138 43.38004,50.25883 44.56116,49.97188 1.18116,-0.28678 20.9921,-22.83039 44.02431,-50.09679 l 41.87679,-49.57551 1.07377,34.53229 1.07374,34.53229 20.24367,-23.01083 c 11.13392,-12.65583 21.03939,-23.01081 22.0121,-23.01081 0.97266,0 1.76846,44.05823 1.76846,97.90723 v 97.90723 h -10.7376 -10.73766 V 388.3915 c 0,-38.46351 -0.72479,-69.85604 -1.61065,-69.76114 -0.88585,0.0952 -25.77032,27.64677 -55.29883,61.22654 l -53.68817,61.05406 -4.53116,-4.74167 c -2.49209,-2.60794 -27.13495,-30.3456 -54.76191,-61.63918 l -50.2308,-56.89777 -0.56616,70.34646 -0.56625,70.34648 h -10.70832 -10.70832 l 0.0439,-99.52109 z m 141.32255,38.73254 c 4.56965,-5.02994 19.12541,-21.43248 32.34608,-36.45039 l 24.03759,-27.30512 -0.62582,-17.55616 -0.62586,-17.55615 -32.01481,37.86796 c -17.60823,20.82728 -32.27963,37.86798 -32.60316,37.86798 -0.32349,0 -13.45885,-15.2277 -29.18964,-33.83931 -15.73076,-18.61146 -30.26044,-35.79901 -32.28814,-38.19446 -3.53573,-4.17698 -3.68682,-3.60631 -3.68975,13.935 l -0.002,18.29029 31.60761,35.95878 c 17.38419,19.7773 32.31253,35.99653 33.17402,36.04271 0.86152,0.0468 5.30523,-4.03125 9.87492,-9.06113 z m -96.26865,11.27416 v -49.51431 l 10.73766,11.88055 10.73764,11.88036 v 37.63384 37.63395 h -10.73764 -10.73766 z m 152.55631,11.31977 0.0818,-38.1946 10.65579,-11.44709 10.65576,-11.44705 v 49.64169 49.64167 h -10.73765 -10.73762 l 0.0818,-38.19462 z"
     id="path5768"
     inkscape:connector-curvature="0" />
</svg>
