<?xml version="1.0" encoding="UTF-8" standalone="no"?>
<!-- Created with Inkscape (http://www.inkscape.org/) -->

<svg
   xmlns:dc="http://purl.org/dc/elements/1.1/"
   xmlns:cc="http://creativecommons.org/ns#"
   xmlns:rdf="http://www.w3.org/1999/02/22-rdf-syntax-ns#"
   xmlns:svg="http://www.w3.org/2000/svg"
   xmlns="http://www.w3.org/2000/svg"
   xmlns:sodipodi="http://sodipodi.sourceforge.net/DTD/sodipodi-0.dtd"
   xmlns:inkscape="http://www.inkscape.org/namespaces/inkscape"
   version="1.1"
   id="svg5785"
   width="819.20001"
   height="819.20001"
   viewBox="0 0 819.20001 819.20001"
   sodipodi:docname="icon.svg"
   inkscape:version="0.92.2 (5c3e80d, 2017-08-06)">
  <metadata
     id="metadata5791">
    <rdf:RDF>
      <cc:Work
         rdf:about="">
        <dc:format>image/svg+xml</dc:format>
        <dc:type
           rdf:resource="http://purl.org/dc/dcmitype/StillImage" />
        <dc:title></dc:title>
      </cc:Work>
    </rdf:RDF>
  </metadata>
  <defs
     id="defs5789" />
  <sodipodi:namedview
     pagecolor="#ffffff"
     bordercolor="#666666"
     borderopacity="1"
     objecttolerance="10"
     gridtolerance="10"
     guidetolerance="10"
     inkscape:pageopacity="0"
     inkscape:pageshadow="2"
     inkscape:window-width="1920"
     inkscape:window-height="1001"
     id="namedview5787"
     showgrid="false"
     inkscape:zoom="0.57617185"
     inkscape:cx="630.46324"
     inkscape:cy="458.54143"
     inkscape:window-x="-9"
     inkscape:window-y="-9"
     inkscape:window-maximized="1"
     inkscape:current-layer="svg5785" />
  <rect
     style="fill:#242424;fill-opacity:1;fill-rule:evenodd;stroke:none;stroke-width:28.17992401;stroke-miterlimit:4;stroke-dasharray:none;stroke-opacity:1"
     id="rect6338"
     width="820"
     height="820"
     x="0"
     y="-0.79998779" />
  <path
     style="fill:#f58e24;fill-opacity:1;stroke-width:3.34797406"
     d="M 355.10404,747.41517 C 323.85336,742.9314 273.03924,725.85307 241.6832,709.29471 122.26088,646.2312 50.29189,521.43717 58.130607,391.01545 68.508122,218.35439 210.32115,80.439219 389.54021,68.714847 c 74.82489,-4.895064 167.28361,21.909746 228.27594,66.179893 99.32987,72.09646 155.53479,194.1355 141.78013,307.85065 -9.90827,81.91534 -41.34312,147.47272 -97.87434,204.11649 -40.51604,40.59676 -87.54444,69.1421 -143.29214,86.97546 -51.90998,16.6058 -109.08981,21.35935 -163.32576,13.57783 z m 134.89627,-46.16506 c 90.61696,-23.73803 171.76893,-92.51898 206.28794,-174.84046 17.24775,-41.13268 23.07321,-70.66276 23.07321,-116.96184 0,-63.6572 -13.93878,-110.26011 -48.58196,-162.42944 C 627.4966,181.83854 557.95732,134.11958 479.33272,115.6443 444.62155,107.48778 372.79164,107.35834 339.21803,115.39145 283.11337,128.81594 233.05744,156.16988 191.576,196.0729 c -44.48251,42.78999 -74.2456,94.39098 -86.57444,150.096 -7.084109,32.00792 -7.258557,94.03664 -0.35367,125.71505 25.689,117.85458 123.85425,210.77063 247.69221,234.44763 34.06492,6.51291 103.13258,3.96352 137.66021,-5.08147 z m -285.89818,-295.99154 0.0697,-154.99806 14.85962,16.75663 c 8.17269,9.21618 22.81638,26.0952 32.54139,37.50942 9.72516,11.41398 18.81078,20.83953 20.19052,20.9456 1.37962,0.10553 2.50843,-23.99468 2.50843,-53.5575 v -53.7503 l 66.05669,78.64054 c 36.33116,43.25223 67.56178,78.27508 69.4013,77.82817 1.83959,-0.44664 32.69393,-35.55694 68.5652,-78.02272 l 65.22056,-77.21085 1.67233,53.78195 1.67229,53.78195 31.52828,-35.83797 c 17.34041,-19.71069 32.76758,-35.83794 34.28251,-35.83794 1.51487,0 2.75428,68.61802 2.75428,152.48457 V 560.25664 H 598.70198 581.97873 V 451.33902 c 0,-59.90459 -1.12882,-108.79655 -2.50849,-108.64875 -1.37966,0.14827 -40.13572,43.05817 -86.12459,95.35663 l -83.61606,95.08799 -7.05701,-7.38486 c -3.88128,-4.0617 -42.26103,-47.26144 -85.28836,-95.99929 l -78.23142,-88.61483 -0.88176,109.56036 -0.8819,109.56037 h -16.67757 -16.67755 l 0.0683,-154.99807 z m 220.1013,60.32359 c 7.11695,-7.83382 29.78667,-33.37979 50.37706,-56.76927 l 37.43709,-42.52608 -0.97468,-27.34264 -0.97473,-27.34265 -49.86113,58.97706 c -27.42375,32.43722 -50.27357,58.97708 -50.77745,58.97708 -0.50381,0 -20.96134,-23.71623 -45.46109,-52.70268 -24.49971,-28.98622 -47.1288,-55.75479 -50.28682,-59.48556 -5.50669,-6.50538 -5.742,-5.6166 -5.74656,21.70292 l -0.004,28.48602 49.22695,56.00363 c 27.07482,30.80194 50.32481,56.06241 51.66652,56.13433 1.34177,0.0729 8.26258,-6.27843 15.37958,-14.11216 z m -149.93259,17.55882 v -77.11553 l 16.72326,18.50323 16.72323,18.50294 v 58.61242 58.6126 H 290.9941 274.27084 Z m 237.59722,17.62985 0.12739,-59.48577 16.59575,-17.82815 16.5957,-17.82809 v 77.31393 77.31389 h -16.72324 -16.7232 l 0.1274,-59.48581 z"
     id="path5768"
     inkscape:connector-curvature="0" />
</svg>
