<?xml version="1.0" encoding="UTF-8" standalone="no"?>
<!-- Created with Inkscape (http://www.inkscape.org/) -->

<svg
   xmlns:dc="http://purl.org/dc/elements/1.1/"
   xmlns:cc="http://creativecommons.org/ns#"
   xmlns:rdf="http://www.w3.org/1999/02/22-rdf-syntax-ns#"
   xmlns:svg="http://www.w3.org/2000/svg"
   xmlns="http://www.w3.org/2000/svg"
   xmlns:sodipodi="http://sodipodi.sourceforge.net/DTD/sodipodi-0.dtd"
   xmlns:inkscape="http://www.inkscape.org/namespaces/inkscape"
   version="1.1"
   id="svg4504"
   width="2185.6001"
   height="2185.6001"
   viewBox="0 0 2185.6001 2185.6001"
   sodipodi:docname="splash.svg"
   inkscape:version="0.92.2 (5c3e80d, 2017-08-06)">
  <metadata
     id="metadata4510">
    <rdf:RDF>
      <cc:Work
         rdf:about="">
        <dc:format>image/svg+xml</dc:format>
        <dc:type
           rdf:resource="http://purl.org/dc/dcmitype/StillImage" />
        <dc:title></dc:title>
      </cc:Work>
    </rdf:RDF>
  </metadata>
  <defs
     id="defs4508" />
  <sodipodi:namedview
     pagecolor="#ffffff"
     bordercolor="#666666"
     borderopacity="1"
     objecttolerance="10"
     gridtolerance="10"
     guidetolerance="10"
     inkscape:pageopacity="0"
     inkscape:pageshadow="2"
     inkscape:window-width="1920"
     inkscape:window-height="1001"
     id="namedview4506"
     showgrid="false"
     inkscape:zoom="0.26141209"
     inkscape:cx="1131.3809"
     inkscape:cy="1151.8004"
     inkscape:window-x="-9"
     inkscape:window-y="-9"
     inkscape:window-maximized="1"
     inkscape:current-layer="svg4504" />
  <rect
     style="fill:#242424;fill-opacity:1;fill-rule:evenodd;stroke:none;stroke-width:75.1098175;stroke-miterlimit:4;stroke-dasharray:none;stroke-opacity:1"
     id="rect6338"
     width="2185.6001"
     height="2185.6001"
     x="0"
     y="0" />
  <text
     xml:space="preserve"
     style="font-style:normal;font-weight:normal;font-size:192px;line-height:1.25;font-family:sans-serif;letter-spacing:0px;word-spacing:0px;display:inline;fill:#808000;fill-opacity:1;stroke:none"
     x="59.508915"
     y="1612.1506"
     id="text4594"><tspan
       sodipodi:role="line"
       id="tspan4592"
       x="59.508915"
       y="1787.3181" /></text>
  <text
     xml:space="preserve"
     style="font-style:normal;font-weight:normal;font-size:29.82890701px;line-height:1.25;font-family:sans-serif;letter-spacing:0px;word-spacing:0px;fill:#f58e24;fill-opacity:1;stroke:none;stroke-width:0.74572271"
     x="614.60541"
     y="1700.6158"
     id="text4600"><tspan
       sodipodi:role="line"
       id="tspan4598"
       x="614.60541"
       y="1700.6158"
       style="font-style:normal;font-variant:normal;font-weight:normal;font-stretch:normal;font-size:143.17875671px;font-family:'Trebuchet MS';-inkscape-font-specification:'Trebuchet MS';fill:#f58e24;fill-opacity:1;stroke-width:0.74572271">Master Monitor</tspan></text>
  <path
     style="fill:#f58e24;fill-opacity:1;stroke-width:5.72180414"
     d="m 999.57294,1544.1905 c -53.461,-7.6554 -140.38955,-36.8142 -194.0307,-65.0852 C 601.24465,1371.4334 478.12612,1158.3655 491.53609,935.68915 509.28907,640.89521 751.8907,405.42485 1058.4834,385.40714 c 128.0041,-8.35751 286.1746,37.40778 390.5151,112.99276 169.9251,123.09429 266.0757,331.45842 242.5454,525.6107 -16.9502,139.8587 -70.7263,251.7885 -167.4351,348.4996 -69.3114,69.3131 -149.7636,118.0502 -245.132,148.4981 -88.8032,28.352 -186.6216,36.468 -279.40386,23.1822 z m 230.76906,-78.8202 c 155.0198,-40.5293 293.8477,-157.9629 352.8999,-298.515 29.506,-70.2281 39.4717,-120.6465 39.4717,-199.69555 0,-108.68547 -23.8453,-188.2533 -83.1099,-277.3249 -74.0447,-111.2852 -193.0066,-192.75842 -327.5109,-224.30241 -59.3809,-13.92605 -182.2614,-14.14705 -239.69631,-0.43172 -95.97908,22.92041 -181.61061,69.62336 -252.57338,137.75203 -76.09683,73.05777 -127.01305,161.15907 -148.10427,256.26739 -12.11893,54.64892 -12.41735,160.55406 -0.6049,214.64036 43.94646,201.2198 211.87933,359.8606 423.73067,400.2857 58.27539,11.1198 176.43049,6.7671 235.49739,-8.6759 z m -489.09025,-505.36304 0.11802,-264.63692 25.42045,28.60952 c 13.98123,15.7353 39.03233,44.55382 55.66918,64.04196 16.63685,19.48771 32.17989,35.58049 34.5401,35.76159 2.36022,0.18023 4.2913,-40.96749 4.2913,-91.44174 v -91.77089 l 113.00415,134.2674 c 62.15225,73.84697 115.57895,133.64344 118.72585,132.88043 3.147,-0.76258 55.93,-60.7084 117.2955,-133.21258 l 111.5738,-131.82645 2.8609,91.82496 2.8608,91.82496 53.9359,-61.18818 c 29.6645,-33.65321 56.056,-61.18816 58.6476,-61.18816 2.5915,0 4.7118,117.15541 4.7118,260.3455 v 260.34554 h -28.6086 -28.6087 V 1038.683 c 0,-102.27848 -1.9311,-185.75451 -4.2913,-185.50217 -2.3602,0.25319 -68.6608,73.51567 -147.3346,162.80777 l -143.0433,162.3491 -12.0725,-12.6086 c -6.6398,-6.9348 -72.2966,-80.6921 -145.90407,-163.905 L 801.21236,850.52702 799.7038,1037.5856 798.19515,1224.6442 H 769.6647 741.13418 l 0.118,-264.63694 z m 376.53055,102.99384 c 12.1751,-13.3751 50.9565,-56.9912 86.1808,-96.92536 l 64.0442,-72.60718 -1.6674,-46.68365 -1.6675,-46.68364 -85.2982,100.69487 c -46.9142,55.38189 -86.0037,100.69486 -86.8657,100.69486 -0.8619,0 -35.8589,-40.492 -77.771,-89.98222 -41.91202,-49.4898 -80.62395,-95.19328 -86.02639,-101.56302 -9.4204,-11.10702 -9.82296,-9.58958 -9.83077,37.05458 l -0.004,48.63581 84.21326,95.61814 c 46.3173,52.58991 86.0914,95.71851 88.3867,95.84131 2.2954,0.1244 14.1349,-10.7195 26.3101,-24.0945 z m -256.49188,29.9792 V 961.31657 l 28.60868,31.59162 28.60867,31.59111 v 100.0723 100.0726 H 889.8991 861.29042 Z m 406.46108,30.1004 0.2179,-101.5634 28.3906,-30.43901 28.3905,-30.43891 v 132.00242 132.0024 h -28.6087 -28.6086 l 0.218,-101.5635 z"
     id="path5768"
     inkscape:connector-curvature="0" />
  <rect
     style="fill:#242424;fill-opacity:1;fill-rule:evenodd;stroke:none;stroke-width:75.59055328;stroke-miterlimit:4;stroke-dasharray:none;stroke-opacity:1"
     id="rect6340"
     width="0"
     height="696.21881"
     x="-210.39578"
     y="-649.00488" />
</svg>
